<?xml version="1.0" standalone="no"?>
<!DOCTYPE svg PUBLIC "-//W3C//DTD SVG 20010904//EN"
 "http://www.w3.org/TR/2001/REC-SVG-20010904/DTD/svg10.dtd">
<svg version="1.0" xmlns="http://www.w3.org/2000/svg"
 width="700.000000pt" height="700.000000pt" viewBox="0 0 700.000000 700.000000"
 preserveAspectRatio="xMidYMid meet">
<metadata>
Created by potrace 1.11, written by Peter Selinger 2001-2013
</metadata>
<g transform="translate(0.000000,700.000000) scale(0.100000,-0.100000)"
fill="#000000" stroke="none">
<path d="M1750 6125 l0 -295 -188 0 c-137 0 -204 -4 -247 -15 -164 -43 -301
-156 -373 -306 -22 -46 -45 -108 -51 -136 -16 -77 -16 -4274 0 -4340 46 -194
207 -363 404 -426 l70 -22 2135 0 2135 0 70 22 c200 64 356 230 406 433 12 45
14 421 14 2170 0 1995 -1 2119 -18 2179 -53 194 -183 337 -372 411 -55 22 -78
24 -272 28 l-213 4 0 294 0 294 -290 0 -290 0 -2 -292 -3 -293 -1165 0 -1165
0 -3 293 -2 292 -290 0 -290 0 0 -295z m3790 -3350 l0 -1605 -2040 0 -2040 0
0 1605 0 1605 2040 0 2040 0 0 -1605z"/>
<path d="M2040 3500 l0 -290 295 0 295 0 0 290 0 290 -295 0 -295 0 0 -290z"/>
<path d="M3210 3500 l0 -290 290 0 290 0 0 290 0 290 -290 0 -290 0 0 -290z"/>
<path d="M4370 3500 l0 -290 295 0 295 0 0 290 0 290 -295 0 -295 0 0 -290z"/>
</g>
</svg>
